<?xml version="1.0" encoding="UTF-8"?>
<!DOCTYPE svg PUBLIC "-//W3C//DTD SVG 1.1//EN" "http://www.w3.org/Graphics/SVG/1.1/DTD/svg11.dtd">
<!-- Creator: CorelDRAW X8 -->
<svg xmlns="http://www.w3.org/2000/svg" xml:space="preserve" width="2000px" height="2000px" version="1.1" style="shape-rendering:geometricPrecision; text-rendering:geometricPrecision; image-rendering:optimizeQuality; fill-rule:evenodd; clip-rule:evenodd"
viewBox="0 0 2000 2000"
 xmlns:xlink="http://www.w3.org/1999/xlink">
 <defs>
  <style type="text/css">
   <![CDATA[
    .str0 {stroke:#2B2A29;stroke-width:17.7165}
    .fil0 {fill:none}
    .fil4 {fill:#383536}
    .fil1 {fill:#FFC100}
    .fil5 {fill:#2B2A29;fill-rule:nonzero}
    .fil3 {fill:#383536;fill-rule:nonzero}
    .fil2 {fill:url(#id3)}
   ]]>
  </style>
   <clipPath id="id0">
    <path d="M4092 2169l1166 0 -1075 168 -350 0c79,-50 175,-114 259,-168l0 0zm-1250 168l-898 0 893 -138c0,32 2,88 5,138l0 0z"/>
   </clipPath>
    <clipPath id="id1">
     <path d="M4092 2169l1164 0 0 0 -1073 168 -350 0c79,-50 175,-114 259,-168l0 0zm-1250 168l-898 0 893 -138c0,32 2,88 5,138l0 0z"/>
    </clipPath>
    <clipPath id="id2">
     <path d="M4092 2169l1166 0 -1075 168 -350 0c79,-50 175,-114 259,-168l0 0zm-1250 168l-898 0 893 -138c0,32 2,88 5,138l0 0z"/>
    </clipPath>
  <linearGradient id="id3" gradientUnits="userSpaceOnUse" x1="959.739" y1="830.901" x2="152.523" y2="446.513">
   <stop offset="0" style="stop-opacity:0.858824; stop-color:#FFC100"/>
   <stop offset="0.988235" style="stop-opacity:1; stop-color:#FFF77F"/>
   <stop offset="1" style="stop-opacity:1; stop-color:#F7D200"/>
  </linearGradient>
 </defs>
 <g id="Слой_x0020_1">
  <metadata id="CorelCorpID_0Corel-Layer"/>
  <g>
  </g>
  <g style="clip-path:url(#id0)">
   <g>
   </g>
   <g style="clip-path:url(#id1)">
    <image x="1944" y="2169" width="3311" height="168" xlink:href="0368-logo-cc062113-f0ba-42ba-bb7e-8819214b812e_Images\0368-logo-cc062113-f0ba-42ba-bb7e-8819214b812e_ImgID1.gif"/>
   </g>
   <g style="clip-path:url(#id2)">
   </g>
  </g>
  <path class="fil0" d="M4092 2169l1166 0 -1075 168 -350 0c79,-50 175,-114 259,-168l0 0zm-1250 168l-898 0 893 -138c0,32 2,88 5,138l0 0z"/>
  <path class="fil0" d="M2834 2174c0,0 -37,-683 311,-789 348,-106 321,-710 215,-890 -106,-180 527,-123 527,-123l478 389c0,0 99,622 89,671 -10,49 -138,557 -197,616 -59,60 -567,380 -567,380 0,0 -533,133 -577,128 -44,-5 -261,-103 -266,-133 -5,-29 -13,-249 -13,-249l0 0z"/>
  <path class="fil1" d="M51 935l887 -886c33,-34 87,-34 120,0l886 886c34,33 34,87 0,121l-886 886c-33,33 -87,33 -120,0l-887 -886c-33,-34 -33,-88 0,-121z"/>
  <path class="fil2" d="M50 934l888 -888c32,-32 86,-32 121,0l212 212c59,247 27,678 -262,767 -258,79 -303,478 -310,678l-649 -649c-32,-34 -32,-88 0,-120l0 0z"/>
  <path class="fil0 str0" d="M96 968l874 -874c15,-16 40,-16 55,0l874 874c16,15 16,40 0,55l-874 874c-15,15 -40,15 -55,0l-874 -874c-15,-15 -15,-40 0,-55z"/>
  <polygon class="fil3" points="689,734 716,830 647,830 647,1247 544,1247 544,830 475,830 502,734 "/>
  <path id="_1" class="fil3" d="M845 1183l-10 64 -104 0 94 -513 108 0 94 513 -103 0 -10 -64 -69 0 0 0zm10 -81l49 0 -25 -183 -24 183 0 0z"/>
  <polygon id="_2" class="fil3" points="1274,978 1348,1247 1244,1247 1202,1067 1165,1247 1062,1247 1133,978 1064,734 1165,734 1202,914 1244,734 1345,734 "/>
  <polygon id="_3" class="fil3" points="1419,734 1523,734 1523,1247 1419,1247 "/>
  <path class="fil3" d="M813 1333c0,0 0,0 0,0 -8,0 -18,10 -27,25 -13,22 -18,39 -18,57 0,10 3,14 10,14 8,0 15,-4 22,-14 5,-5 10,-10 13,-18 2,-2 2,-4 5,-4 2,0 5,0 5,4 0,3 -5,10 -10,18 -15,19 -30,32 -47,34 -10,0 -17,-2 -22,-7 -5,-5 -8,-10 -8,-20 0,-15 5,-29 15,-47 7,-15 20,-29 32,-39 10,-8 20,-13 30,-13 7,-2 14,0 19,3 5,2 8,7 8,15 0,5 -3,7 -5,12 -3,3 -5,5 -10,5 -2,0 -5,0 -7,-2 -3,0 -5,-3 -5,-5 0,-3 2,-8 5,-10 2,-3 2,-3 2,-5 0,-3 -2,-3 -7,-3l0 0z"/>
  <path id="_1_0" class="fil3" d="M896 1351c3,-3 5,-3 8,-5 0,0 2,0 2,0 3,0 8,0 13,-3 0,0 2,0 2,-2 3,0 5,2 5,7 0,5 -2,17 -10,35 -7,17 -10,27 -10,29 0,3 0,5 5,5 3,0 5,3 5,3 0,2 -2,5 -5,5 0,0 -2,0 -7,2 -8,0 -12,2 -20,5 -2,2 -2,2 -5,2 -2,0 -2,-2 -2,-7 0,-2 0,-5 0,-7 -3,2 -5,5 -10,7 -5,7 -10,10 -17,10 -8,2 -13,0 -15,-3 -5,-5 -8,-9 -8,-14 0,-10 3,-18 8,-27 5,-10 12,-18 20,-25 12,-15 22,-20 34,-22 3,0 7,0 7,5l0 0zm0 9c-2,3 -2,3 -4,3 -3,0 -5,0 -5,-3 0,-2 0,-2 0,-2 0,0 0,0 0,-2 0,0 0,0 0,0 -5,0 -10,7 -18,19 -7,18 -12,30 -12,40 0,2 2,5 5,5 2,0 7,-5 12,-13 5,-5 8,-12 13,-17 5,-10 7,-20 9,-30l0 0z"/>
  <path id="_2_1" class="fil3" d="M1002 1346c0,0 0,0 -2,-3 0,0 -2,0 -5,-2 0,0 0,0 0,-3 0,-2 0,-2 5,-2 0,0 0,0 0,0l5 -3c0,0 0,0 2,0 3,0 5,0 10,-2 5,0 8,-3 10,-3 3,0 5,3 5,10 0,8 0,18 -2,30 -3,15 -3,22 -3,29 0,3 0,3 3,5 0,0 0,0 0,0 0,0 2,3 5,3 2,0 2,0 2,2 0,0 0,0 0,0 0,3 -2,5 -7,5 -3,0 -8,3 -15,5 -5,3 -10,3 -10,3 -5,0 -5,0 -7,-3 0,-2 0,-5 0,-7 0,-8 2,-20 4,-40 0,0 0,-2 0,-10 -2,5 -7,13 -12,25 -2,3 -2,8 -2,12 0,3 -3,3 -5,5 -3,0 -5,0 -8,3 -2,0 -5,0 -7,0 -2,2 -5,2 -7,2 -3,0 -5,-2 -5,-7 0,0 0,-5 0,-10 0,0 0,-5 0,-12 0,-5 0,-8 0,-10 -3,2 -5,10 -10,20 -5,12 -8,19 -8,24 0,3 0,3 3,5 0,0 2,0 5,0 0,0 2,0 2,3 0,0 -2,2 -10,5 -2,0 -5,2 -9,2 -3,2 -3,2 -5,2 -3,0 -5,-2 -5,-4 0,-5 2,-10 5,-18 2,-5 9,-17 19,-34l13 -20c0,-2 0,-2 -3,-2 0,-3 0,-3 -2,-3 0,0 -3,0 -3,0 -2,0 -2,-2 -2,-5 0,0 2,-2 5,-2 0,0 0,0 0,0l7 0c0,0 0,0 0,0 3,0 8,-3 10,-3 5,-2 7,-2 10,-2 5,-3 5,2 5,7 0,5 0,15 0,25 0,5 0,7 0,10l0 2c7,-15 15,-27 19,-34l0 0z"/>
  <path id="_3_2" class="fil3" d="M1138 1289c-2,2 -2,7 -5,12 -2,3 -2,8 -2,8 0,5 -3,7 -5,7 0,0 0,0 0,0 0,0 -3,0 -3,0 0,-5 0,-5 0,-5 -2,-2 -2,-2 -5,-2 -2,0 -7,0 -9,0 -8,0 -13,2 -13,5 0,2 3,2 5,2 0,0 5,0 10,3 0,0 2,2 5,4 0,3 0,5 0,8 0,2 0,7 -3,15 0,0 -2,7 -7,17 -5,10 -10,17 -17,27 -3,3 -5,7 -10,12 -7,8 -15,10 -20,10 -5,3 -10,0 -15,-5 -5,-2 -5,-7 -5,-12 0,-10 3,-20 8,-30 5,-7 10,-14 17,-22 5,-7 12,-12 17,-15 8,-5 13,-7 15,-7 -2,0 -5,0 -15,0 -2,0 -5,-2 -5,-5 0,-2 0,-5 5,-7 3,-5 8,-8 15,-13 5,-2 10,-5 17,-7 3,-3 8,-3 10,-3 3,0 5,0 8,0 5,0 7,0 7,3 0,0 0,0 0,0l0 0zm-32 47c0,2 -2,2 -5,2 -2,0 -2,0 -2,-5 0,0 0,0 0,0 0,0 0,-2 0,-2 0,0 0,0 0,0 0,0 0,0 -3,0 -2,0 -10,7 -15,20 -9,17 -14,29 -14,39 0,3 2,5 5,5 2,0 7,-5 14,-12 3,-5 8,-13 10,-18 5,-9 10,-19 10,-29l0 0z"/>
  <path id="_4" class="fil3" d="M1131 1321l2 0c0,0 3,0 3,0 7,-2 12,-2 17,-5 2,-2 5,-2 5,-2 5,0 5,2 5,7 0,5 -3,12 -5,22 0,0 -3,8 -8,20 -5,12 -7,20 -7,30 0,2 -2,4 -7,7 -5,0 -10,2 -15,5 -3,0 -3,2 -5,2 -3,0 -3,-2 -3,-7 0,-7 0,-12 3,-22 2,-5 7,-13 12,-27 5,-10 5,-15 5,-18 0,-2 0,-5 -2,-5 -5,0 -5,-2 -5,-2 0,-3 0,-5 5,-5 0,0 0,0 0,0l0 0zm27 -42c2,0 7,0 7,3 3,2 5,4 5,7 0,5 -2,7 -7,12 -5,5 -10,8 -15,8 -5,0 -7,0 -10,-3 -2,-2 -2,-5 -2,-7 0,-5 2,-10 7,-13 5,-4 10,-7 15,-7l0 0z"/>
  <path id="_5" class="fil3" d="M1212 1323c7,-7 10,-9 12,-12 5,-5 10,-7 15,-7 8,0 13,2 17,5 3,5 5,10 5,14 0,10 -2,20 -9,30 -8,12 -18,25 -30,35 -7,5 -15,7 -20,9 -5,0 -10,-2 -12,-4 -3,7 -3,14 -3,22 0,0 0,0 0,2 0,3 0,3 0,3 0,2 -2,5 -7,7 -5,0 -10,2 -15,5 -2,2 -2,2 -5,2 -2,0 -5,-2 -5,-7 0,-10 3,-20 8,-34 0,-5 5,-20 12,-40 7,-15 10,-22 10,-25 0,-2 -3,-5 -5,-5 -5,-2 -5,-2 -5,-4 0,-3 0,-3 5,-5 0,0 0,0 0,0l5 0c0,0 2,0 2,0 5,0 10,-3 18,-5 2,0 2,0 5,0 2,0 5,0 5,5 0,2 0,5 -3,9zm-17 57c0,0 0,0 0,0 0,0 2,0 2,0 3,-2 5,0 5,3 0,0 0,2 0,2 0,0 0,0 0,0 0,3 0,3 0,3 3,0 8,-5 13,-13 4,-10 9,-19 14,-29 3,-8 3,-15 3,-18 0,-5 0,-5 -3,-5 -7,0 -12,8 -19,20 -8,13 -13,25 -15,37l0 0z"/>
  <path class="fil4" d="M734 1484l106 0 0 106 -106 0 0 -106zm106 106l106 0 0 106 -106 0 0 -106zm106 -106l106 0 0 106 -106 0 0 -106zm106 106l106 0 0 108 -106 0 0 -108zm106 -104l106 0 0 106 -106 0 0 -106z"/>
  <polygon class="fil5" points="739,621 739,525 716,525 716,512 768,512 768,525 749,525 749,621 "/>
  <path id="_1_3" class="fil5" d="M795 599l-5 22 -9 0 19 -109 18 0 19 109 -10 0 -4 -22 -28 0 0 0zm0 -10l25 0 -12 -62 -13 62z"/>
  <polygon id="_2_4" class="fil5" points="884,574 867,621 855,621 877,564 857,512 869,512 887,557 904,512 914,512 894,564 916,621 904,621 "/>
  <polygon id="_3_5" class="fil5" points="948,512 948,621 936,621 936,512 "/>
  <polygon id="_4_6" class="fil5" points="970,562 1000,562 1000,571 970,571 "/>
  <path id="_5_7" class="fil5" d="M1044 512c10,0 15,3 20,8 3,5 5,10 5,19l0 3 -12 0 0 -5c0,-5 0,-7 -3,-10 -2,-2 -5,-5 -10,-5 -2,0 -7,3 -7,5 -2,3 -5,5 -5,10 0,5 3,7 3,12 2,3 4,5 7,8 2,2 5,5 10,7 2,3 5,5 7,7 3,3 5,8 8,10 2,5 2,10 2,15 0,8 -2,15 -5,20 -5,5 -10,7 -20,7 -7,0 -14,-2 -17,-7 -5,-5 -7,-12 -7,-20l0 -7 12 0 0 7c0,5 0,8 3,10 2,5 4,5 9,5 5,0 8,0 10,-5 3,-2 3,-5 3,-10 0,-5 0,-7 -3,-10 -2,-5 -2,-7 -7,-10 -3,-2 -5,-5 -8,-7 -2,-2 -7,-5 -9,-7 -3,-3 -5,-5 -5,-10 -3,-3 -3,-8 -3,-13 0,-9 0,-14 5,-19 5,-5 10,-8 17,-8l0 0z"/>
  <polygon id="_6" class="fil5" points="1101,606 1101,621 1089,621 1089,606 "/>
  <polygon id="_7" class="fil5" points="1131,621 1131,525 1111,525 1111,512 1163,512 1163,525 1143,525 1143,621 "/>
  <path id="_8" class="fil5" d="M1180 539c0,-9 2,-14 7,-19 3,-5 10,-8 18,-8 10,0 14,3 19,8 5,5 5,10 5,19l0 55c0,10 0,17 -5,22 -5,5 -9,7 -19,7 -8,0 -15,-2 -18,-7 -5,-5 -7,-12 -7,-22l0 -55zm12 57c0,5 0,8 3,10 2,5 5,5 10,5 5,0 7,0 10,-5 2,-2 2,-5 2,-10l0 -57c0,-4 0,-9 -2,-12 -3,-2 -5,-5 -10,-5 -5,0 -8,3 -10,5 -3,3 -3,8 -3,12l0 57z"/>
  <path id="_9" class="fil5" d="M1276 512c8,0 15,3 17,8 5,5 8,12 8,19l0 13c0,10 -3,15 -8,19 -2,5 -9,8 -19,8l-10 0 0 42 -12 0 0 -109 24 0 0 0zm-2 55c5,0 10,0 12,-3 0,-2 2,-5 2,-10l0 -15c0,-4 -2,-9 -2,-12 -2,-2 -5,-2 -10,-2l-12 0 0 42 10 0z"/>
 </g>
</svg>
