<?xml version="1.0" encoding="UTF-8"?>
<!DOCTYPE svg PUBLIC "-//W3C//DTD SVG 1.1//EN" "http://www.w3.org/Graphics/SVG/1.1/DTD/svg11.dtd">
<!-- Creator: CorelDRAW X8 -->
<svg xmlns="http://www.w3.org/2000/svg" xml:space="preserve" width="211.667mm" height="211.667mm" version="1.1" style="shape-rendering:geometricPrecision; text-rendering:geometricPrecision; image-rendering:optimizeQuality; fill-rule:evenodd; clip-rule:evenodd"
viewBox="0 0 21167 21167"
 xmlns:xlink="http://www.w3.org/1999/xlink">
 <defs>
  <style type="text/css">
   <![CDATA[
    .str0 {stroke:#2B2A29;stroke-width:150}
    .fil1 {fill:none}
    .fil3 {fill:#383536}
    .fil0 {fill:#FFEF00}
    .fil4 {fill:#2B2A29;fill-rule:nonzero}
    .fil2 {fill:#383536;fill-rule:nonzero}
   ]]>
  </style>
    <clipPath id="id0">
     <path d="M9426 19328l24002 0 -11535 1806 -24002 0 11535 -1806z"/>
    </clipPath>
 </defs>
 <g id="Слой_x0020_1">
  <metadata id="CorelCorpID_0Corel-Layer"/>
  <g id="_442399587328">
   <g style="clip-path:url(#id0)">
    <image x="-2109" y="19328" width="35537" height="1806" xlink:href="6484-logo-9305b682-c78a-4aad-857c-8565d9e4b759_Images\6484-logo-9305b682-c78a-4aad-857c-8565d9e4b759_ImgID1.gif"/>
   </g>
  </g>
  <rect class="fil0" transform="matrix(0.642115 -0.642115 0.642115 0.642115 -168.368 10581)" width="16839" height="16839" rx="1000" ry="1000"/>
  <rect class="fil1 str0" transform="matrix(0.592752 -0.592752 0.592752 0.592752 662.879 10581)" width="16839" height="16839" rx="513" ry="513"/>
  <polygon class="fil2" points="7342,7774 7615,8798 6879,8798 6879,13277 5755,13277 5755,8798 5019,8798 5307,7774 "/>
  <path id="1" class="fil2" d="M8992 12594l-98 683 -1108 0 994 -5503 1177 0 994 5503 -1108 0 -99 -683 -752 0zm122 -873l509 0 -251 -1951 -258 1951z"/>
  <polygon id="2" class="fil2" points="13604,10408 14386,13277 13270,13277 12845,11341 12427,13277 11311,13277 12093,10408 11342,7774 12435,7774 12845,9709 13270,7774 14355,7774 "/>
  <polygon id="3" class="fil2" points="15164,7774 16264,7774 16264,13277 15164,13277 "/>
  <path class="fil2" d="M8657 14208c-2,0 -5,0 -7,1 -86,10 -179,98 -278,265 -134,228 -201,431 -201,610 0,113 39,165 116,156 80,-10 161,-62 243,-159 43,-49 85,-115 126,-197 11,-25 26,-38 44,-40 33,-4 49,11 49,44 0,39 -31,105 -96,198 -147,216 -318,335 -511,358 -99,12 -176,-9 -231,-62 -55,-53 -83,-129 -83,-227 0,-156 51,-323 154,-501 96,-166 214,-305 353,-414 109,-84 216,-132 320,-145 79,-9 144,1 195,30 57,35 85,88 85,162 0,47 -14,89 -42,125 -31,41 -69,64 -114,69 -32,4 -60,-3 -83,-22 -25,-18 -37,-43 -37,-74 0,-29 18,-64 53,-104 11,-12 17,-23 17,-34 0,-31 -24,-44 -72,-39z"/>
  <path id="1" class="fil2" d="M9565 14390c12,-22 38,-35 76,-40 3,0 6,0 8,-1 37,-4 82,-17 133,-38 16,-6 29,-9 39,-11 29,-3 44,20 44,70 0,62 -35,183 -106,363 -71,181 -106,287 -106,320 0,27 17,43 50,49 32,7 48,20 48,38 0,21 -12,36 -37,45 -6,2 -34,7 -84,15 -71,14 -139,38 -205,73 -23,11 -39,18 -50,19 -32,4 -48,-21 -48,-74 0,-23 3,-52 8,-87 -20,18 -49,49 -89,90 -63,65 -130,102 -202,110 -66,8 -119,-8 -160,-50 -43,-38 -64,-91 -64,-156 0,-90 27,-188 83,-294 49,-94 111,-181 187,-258 138,-141 261,-217 370,-230 44,-5 79,11 105,47zm-15 115c-19,13 -35,21 -47,22 -31,4 -47,-10 -47,-40 0,-4 0,-9 0,-15 2,-7 2,-12 2,-14 0,-10 -4,-15 -13,-14 -43,5 -101,76 -174,212 -95,176 -143,317 -143,423 0,38 15,55 43,52 39,-5 90,-49 153,-133 40,-57 77,-117 111,-181 56,-108 95,-213 115,-312z"/>
  <path id="2" class="fil2" d="M10691 14342c0,-6 -6,-14 -19,-23 -12,-2 -29,-10 -52,-24 -12,-10 -18,-20 -18,-30 0,-21 18,-33 52,-37 3,0 6,0 8,-1l60 -7c2,0 5,0 7,-1 29,-3 65,-13 111,-28 50,-16 87,-26 111,-29 40,-5 60,32 60,109 0,62 -9,163 -26,304 -19,149 -28,253 -28,312 0,28 4,49 11,61 4,5 8,8 13,10 10,3 30,9 59,18 11,4 17,11 17,23 0,4 0,8 -2,12 -6,24 -28,39 -67,46 -29,6 -81,21 -154,45 -68,22 -112,34 -131,36 -28,4 -46,-10 -54,-39 -4,-11 -6,-33 -6,-68 0,-83 13,-222 38,-418 0,-2 4,-38 10,-109 -29,36 -74,122 -137,257 -14,32 -24,74 -29,127 -2,25 -21,43 -55,54 -27,6 -55,13 -83,20 -12,3 -37,11 -74,26 -32,12 -55,20 -70,21 -33,4 -54,-21 -63,-76 -4,-21 -6,-60 -6,-120 0,-9 2,-52 6,-126 4,-47 7,-84 8,-112 -24,38 -61,109 -112,216 -58,120 -87,207 -87,259 0,24 9,39 27,46 7,3 28,6 64,9 13,3 19,11 19,25 0,14 -28,31 -85,52 -36,11 -73,24 -110,38 -23,10 -40,16 -52,17 -37,5 -56,-15 -56,-58 0,-33 19,-93 56,-180 24,-55 94,-181 211,-376l125 -212c-3,-13 -8,-23 -16,-30 -8,-6 -17,-9 -28,-10 -16,-1 -30,-4 -43,-10 -13,-6 -20,-18 -20,-34 0,-21 15,-33 45,-36 1,0 2,0 3,-1l81 -7c3,-1 6,-1 9,-1 29,-4 66,-14 109,-30 48,-18 81,-28 101,-30 37,-4 56,28 56,95 0,57 -3,143 -8,256 -2,50 -4,84 -4,101l0 43c81,-167 154,-292 218,-375z"/>
  <path id="3" class="fil2" d="M12136 13743c-12,28 -26,65 -44,110 -19,47 -29,79 -32,97 -8,52 -22,79 -42,82 -1,0 -2,0 -4,0 -13,-1 -21,-8 -22,-21 -6,-30 -11,-47 -14,-53 -7,-10 -19,-17 -39,-19 -38,-6 -79,-7 -121,-2 -79,9 -118,29 -118,60 0,13 12,20 37,21 23,2 58,10 104,23 25,16 44,36 57,61 11,19 17,48 17,89 0,23 -11,69 -31,137 -7,25 -34,92 -81,201 -47,97 -107,194 -182,291 -22,28 -59,68 -113,122 -76,73 -146,114 -209,122 -64,7 -118,-9 -161,-50 -42,-40 -63,-91 -63,-157 0,-90 28,-188 83,-294 51,-94 113,-181 187,-258 66,-66 131,-118 197,-159 61,-38 113,-60 158,-66 -19,-12 -71,-15 -156,-9 -45,4 -68,-12 -71,-49 2,-19 21,-49 58,-91 30,-33 80,-70 152,-111 66,-37 130,-66 193,-88 41,-14 80,-23 118,-27 24,-3 48,-4 70,-3 48,2 72,14 72,37 0,1 0,3 0,4zm-328 494c-19,13 -35,21 -48,22 -32,4 -48,-10 -48,-40 0,-4 1,-9 2,-15 0,-7 0,-12 0,-14 0,-1 0,-3 0,-4 0,-7 -5,-11 -14,-9 -42,5 -99,75 -171,211 -97,178 -145,319 -145,423 0,38 14,55 43,52 39,-5 90,-49 152,-132 42,-58 80,-118 113,-182 57,-108 96,-213 116,-312z"/>
  <path id="4" class="fil2" d="M12057 14073l24 -3c14,-1 27,-3 40,-5 72,-8 137,-24 195,-47 22,-10 38,-16 50,-18 32,-4 48,22 48,76 0,53 -18,130 -55,232 -4,11 -34,86 -92,225 -46,115 -68,216 -68,302 0,40 -26,67 -78,80 -46,11 -101,32 -165,61 -17,9 -31,13 -41,15 -29,3 -44,-23 -44,-77 0,-58 15,-131 44,-219 16,-51 59,-155 127,-311 41,-95 61,-157 61,-188 0,-25 -16,-39 -47,-43 -36,-1 -54,-13 -54,-35 0,-26 17,-40 52,-45 1,0 2,0 3,0zm300 -444c36,-3 66,6 90,26 24,20 35,47 35,81 0,44 -21,84 -64,121 -56,52 -114,82 -171,89 -37,4 -68,-4 -93,-25 -25,-20 -38,-48 -38,-84 0,-53 27,-99 83,-139 55,-40 108,-63 158,-69z"/>
  <path id="5" class="fil2" d="M12947 14089c59,-59 103,-99 133,-120 55,-42 109,-67 160,-73 69,-8 123,9 162,50 39,43 58,98 58,165 0,92 -29,192 -88,302 -78,145 -187,268 -327,371 -83,62 -156,97 -217,104 -53,6 -94,-12 -122,-55 -26,85 -38,165 -38,241 0,8 0,19 0,33 1,14 2,25 2,32 0,34 -23,57 -68,67 -63,17 -121,38 -172,65 -18,10 -32,15 -42,16 -35,4 -52,-21 -52,-76 0,-99 21,-219 63,-360 19,-69 70,-212 153,-430 57,-154 86,-246 86,-274 0,-30 -16,-48 -49,-55 -39,-5 -58,-17 -58,-35 0,-28 22,-45 65,-50 2,0 5,0 7,-1l51 -6c4,0 8,-1 12,-1 59,-7 124,-24 194,-51 17,-8 30,-12 39,-13 37,-4 56,18 56,68 0,15 -3,44 -8,86zm-206 618c5,-1 9,-1 11,-1 9,-3 16,-4 20,-5 36,-4 54,11 54,44 0,4 -1,9 -2,14 -2,6 -4,11 -4,13 0,10 5,13 15,12 27,-3 68,-45 122,-125 69,-103 123,-213 160,-330 24,-79 36,-141 36,-184 0,-33 -13,-48 -38,-45 -60,7 -130,77 -208,210 -74,124 -129,257 -166,397z"/>
  <path class="fil3" d="M7797 15834l1139 0 0 1139 -1139 0 0 -1139zm1143 1135l1138 0 0 1139 -1138 0 0 -1139zm1138 -1135l1139 0 0 1139 -1139 0 0 -1139zm1135 1139l1139 0 0 1139 -1139 0 0 -1139zm1139 -1135l1138 0 0 1138 -1138 0 0 -1138z"/>
  <polygon class="fil4" points="7845,6564 7845,5521 7631,5521 7631,5403 8189,5403 8189,5521 7975,5521 7975,6564 "/>
  <path id="1" class="fil4" d="M8459 6330l-45 234 -119 0 222 -1161 188 0 222 1161 -130 0 -44 -234 -294 0zm17 -111l258 0 -131 -670 -127 670z"/>
  <polygon id="2" class="fil4" points="9429,6063 9235,6564 9113,6564 9347,5965 9128,5403 9262,5403 9441,5868 9622,5403 9743,5403 9526,5965 9758,6564 9622,6564 "/>
  <polygon id="3" class="fil4" points="10105,5403 10105,6564 9975,6564 9975,5403 "/>
  <polygon id="4" class="fil4" points="10345,5926 10662,5926 10662,6042 10345,6042 "/>
  <path id="5" class="fil4" d="M11147 5392c88,0 153,26 195,78 42,53 63,123 63,212l0 31 -122 0 0 -38c0,-53 -11,-94 -32,-122 -21,-29 -55,-44 -101,-44 -47,0 -80,15 -101,44 -21,28 -32,69 -32,121 0,43 10,80 29,112 20,32 44,62 72,89 29,27 60,54 94,80 34,26 65,54 94,85 28,31 53,66 72,105 19,40 29,86 29,140 0,89 -21,159 -64,212 -43,52 -109,79 -198,79 -90,0 -155,-27 -197,-79 -42,-53 -63,-123 -63,-212l0 -66 121 0 0 73c0,53 11,94 33,123 22,28 56,43 103,43 46,0 80,-15 102,-43 22,-29 34,-70 34,-123 0,-43 -10,-80 -29,-112 -20,-31 -44,-61 -73,-88 -28,-27 -59,-53 -92,-79 -34,-26 -65,-55 -93,-86 -29,-31 -53,-66 -72,-105 -20,-39 -29,-86 -29,-140 0,-90 21,-160 63,-212 42,-52 106,-78 194,-78z"/>
  <polygon id="6" class="fil4" points="11749,6403 11749,6564 11624,6564 11624,6403 "/>
  <polygon id="7" class="fil4" points="12064,6564 12064,5521 11850,5521 11850,5403 12407,5403 12407,5521 12193,5521 12193,6564 "/>
  <path id="8" class="fil4" d="M12600 5684c0,-90 22,-161 66,-214 43,-52 110,-78 199,-78 90,0 157,26 201,78 44,53 66,124 66,214l0 600c0,88 -22,159 -66,212 -44,53 -111,80 -201,80 -89,0 -156,-27 -199,-80 -44,-53 -66,-124 -66,-212l0 -600zm128 606c0,53 11,95 34,124 22,29 57,44 103,44 48,0 83,-15 105,-44 22,-29 33,-71 33,-124l0 -613c0,-53 -11,-94 -33,-124 -22,-29 -57,-44 -105,-44 -46,0 -81,15 -103,44 -23,30 -34,71 -34,124l0 613z"/>
  <path id="9" class="fil4" d="M13622 5403c91,0 158,25 199,76 41,50 61,119 61,208l0 139c0,93 -22,163 -65,210 -44,47 -112,70 -205,70l-115 0 0 458 -129 0 0 -1161 254 0zm-10 587c48,0 84,-12 108,-35 23,-24 34,-64 34,-121l0 -154c0,-53 -10,-93 -30,-119 -21,-27 -55,-40 -102,-40l-125 0 0 469 115 0z"/>
 </g>
</svg>
